<svg xmlns="http://www.w3.org/2000/svg" xmlns:xlink="http://www.w3.org/1999/xlink" width="300" zoomAndPan="magnify" viewBox="0 0 224.87999 225" height="300" preserveAspectRatio="xMidYMid meet" version="1.0"><defs><g/><clipPath id="id1"><path d="M 3.035156 3.09375 L 220.25 3.09375 L 220.25 220.308594 L 3.035156 220.308594 Z M 3.035156 3.09375 " clip-rule="nonzero"/></clipPath></defs><g fill="#ffffff" fill-opacity="1"><g transform="translate(53.830912, 121.355364)"><g><path d="M 5.1875 0 L 12.601562 0 L 12.601562 -30.433594 L 5.1875 -30.433594 L 0.855469 -27.304688 L 0.855469 -21.6875 L 5.1875 -24.519531 Z M 5.1875 0 "/></g></g></g><g fill="#ffffff" fill-opacity="1"><g transform="translate(69.429941, 121.355364)"><g><path d="M 14.230469 0.429688 C 21.644531 0.429688 26.191406 -5.1875 26.359375 -15.386719 L 26.359375 -15.988281 C 26.359375 -24.859375 21.515625 -30.734375 14.230469 -30.734375 C 7.03125 -30.734375 2.230469 -24.859375 2.230469 -15.988281 L 2.230469 -15.429688 C 2.359375 -5.316406 6.773438 0.429688 14.230469 0.429688 Z M 14.316406 -5.273438 C 11.574219 -5.273438 9.773438 -9.042969 9.644531 -14.917969 L 9.644531 -15.429688 C 9.644531 -21.21875 11.53125 -25.074219 14.316406 -25.074219 C 17.101562 -25.074219 18.945312 -21.21875 18.945312 -15.429688 L 18.945312 -14.917969 C 18.816406 -9.085938 16.972656 -5.273438 14.316406 -5.273438 Z M 14.316406 -5.273438 "/></g></g></g><g fill="#ffffff" fill-opacity="1"><g transform="translate(97.971031, 121.355364)"><g><path d="M 14.230469 0.429688 C 21.644531 0.429688 26.191406 -5.1875 26.359375 -15.386719 L 26.359375 -15.988281 C 26.359375 -24.859375 21.515625 -30.734375 14.230469 -30.734375 C 7.03125 -30.734375 2.230469 -24.859375 2.230469 -15.988281 L 2.230469 -15.429688 C 2.359375 -5.316406 6.773438 0.429688 14.230469 0.429688 Z M 14.316406 -5.273438 C 11.574219 -5.273438 9.773438 -9.042969 9.644531 -14.917969 L 9.644531 -15.429688 C 9.644531 -21.21875 11.53125 -25.074219 14.316406 -25.074219 C 17.101562 -25.074219 18.945312 -21.21875 18.945312 -15.429688 L 18.945312 -14.917969 C 18.816406 -9.085938 16.972656 -5.273438 14.316406 -5.273438 Z M 14.316406 -5.273438 "/></g></g></g><g fill="#ffffff" fill-opacity="1"><g transform="translate(126.512121, 121.355364)"><g><path d="M 9.042969 -13.117188 C 13.460938 -13.117188 16.417969 -16.460938 16.417969 -21.945312 C 16.417969 -27.21875 13.503906 -30.734375 9.042969 -30.734375 C 4.671875 -30.734375 1.757812 -27.132812 1.757812 -21.730469 C 1.757812 -16.589844 4.671875 -13.117188 9.042969 -13.117188 Z M 25.71875 -30.691406 L 11.957031 -0.0429688 L 17.144531 -0.0429688 L 30.90625 -30.691406 Z M 9.085938 -16.675781 C 7.628906 -16.675781 6.644531 -18.6875 6.644531 -21.730469 C 6.644531 -24.988281 7.628906 -27.175781 9.085938 -27.175781 C 10.5 -27.175781 11.488281 -24.988281 11.488281 -21.730469 C 11.488281 -18.6875 10.5 -16.675781 9.085938 -16.675781 Z M 33.863281 0.386719 C 38.320312 0.386719 41.277344 -3.300781 41.277344 -8.785156 C 41.277344 -13.84375 38.320312 -17.230469 33.863281 -17.230469 C 29.488281 -17.230469 26.574219 -13.84375 26.574219 -8.785156 C 26.574219 -3.300781 29.488281 0.386719 33.863281 0.386719 Z M 33.90625 -3.171875 C 32.449219 -3.171875 31.503906 -5.359375 31.503906 -8.660156 C 31.503906 -11.660156 32.449219 -13.671875 33.90625 -13.671875 C 35.320312 -13.671875 36.304688 -11.660156 36.304688 -8.660156 C 36.304688 -5.359375 35.320312 -3.171875 33.90625 -3.171875 Z M 33.90625 -3.171875 "/></g></g></g><g clip-path="url(#id1)"><path fill="#a43836" d="M 111.640625 3.09375 C 113.417969 3.09375 115.195312 3.136719 116.96875 3.226562 C 118.746094 3.3125 120.519531 3.445312 122.285156 3.617188 C 124.054688 3.792969 125.820312 4.007812 127.578125 4.269531 C 129.335938 4.53125 131.085938 4.835938 132.828125 5.179688 C 134.574219 5.527344 136.304688 5.917969 138.03125 6.347656 C 139.753906 6.78125 141.46875 7.253906 143.167969 7.769531 C 144.871094 8.289062 146.554688 8.84375 148.230469 9.441406 C 149.902344 10.042969 151.5625 10.679688 153.203125 11.363281 C 154.84375 12.042969 156.46875 12.761719 158.078125 13.523438 C 159.683594 14.28125 161.269531 15.082031 162.839844 15.917969 C 164.40625 16.757812 165.953125 17.632812 167.476562 18.546875 C 169 19.460938 170.503906 20.410156 171.980469 21.398438 C 173.457031 22.386719 174.910156 23.410156 176.339844 24.46875 C 177.765625 25.527344 179.167969 26.621094 180.539062 27.746094 C 181.914062 28.875 183.261719 30.035156 184.578125 31.230469 C 185.894531 32.421875 187.179688 33.648438 188.4375 34.90625 C 189.695312 36.160156 190.921875 37.449219 192.113281 38.765625 C 193.308594 40.082031 194.46875 41.429688 195.59375 42.800781 C 196.722656 44.175781 197.816406 45.578125 198.875 47.003906 C 199.933594 48.433594 200.957031 49.886719 201.945312 51.363281 C 202.933594 52.839844 203.882812 54.34375 204.796875 55.867188 C 205.710938 57.390625 206.585938 58.9375 207.425781 60.503906 C 208.261719 62.070312 209.0625 63.660156 209.820312 65.265625 C 210.582031 66.871094 211.300781 68.496094 211.980469 70.140625 C 212.660156 71.78125 213.300781 73.4375 213.898438 75.113281 C 214.5 76.785156 215.054688 78.472656 215.570312 80.175781 C 216.085938 81.875 216.5625 83.589844 216.992188 85.3125 C 217.425781 87.035156 217.816406 88.769531 218.160156 90.511719 C 218.507812 92.257812 218.8125 94.007812 219.074219 95.765625 C 219.332031 97.523438 219.550781 99.289062 219.726562 101.054688 C 219.898438 102.824219 220.03125 104.597656 220.117188 106.371094 C 220.203125 108.148438 220.25 109.925781 220.25 111.703125 C 220.25 113.480469 220.203125 115.253906 220.117188 117.03125 C 220.03125 118.804688 219.898438 120.578125 219.726562 122.347656 C 219.550781 124.117188 219.332031 125.878906 219.074219 127.636719 C 218.8125 129.394531 218.507812 131.144531 218.160156 132.890625 C 217.816406 134.632812 217.425781 136.367188 216.992188 138.089844 C 216.5625 139.816406 216.085938 141.527344 215.570312 143.226562 C 215.054688 144.929688 214.5 146.617188 213.898438 148.289062 C 213.300781 149.964844 212.660156 151.621094 211.980469 153.261719 C 211.300781 154.90625 210.582031 156.53125 209.820312 158.136719 C 209.0625 159.742188 208.261719 161.332031 207.425781 162.898438 C 206.585938 164.464844 205.710938 166.011719 204.796875 167.535156 C 203.882812 169.0625 202.933594 170.5625 201.945312 172.039062 C 200.957031 173.519531 199.933594 174.972656 198.875 176.398438 C 197.816406 177.824219 196.722656 179.226562 195.59375 180.601562 C 194.46875 181.976562 193.308594 183.320312 192.113281 184.636719 C 190.921875 185.953125 189.695312 187.242188 188.4375 188.496094 C 187.179688 189.753906 185.894531 190.980469 184.578125 192.171875 C 183.261719 193.367188 181.914062 194.527344 180.539062 195.65625 C 179.167969 196.78125 177.765625 197.875 176.339844 198.933594 C 174.910156 199.992188 173.457031 201.015625 171.980469 202.003906 C 170.503906 202.992188 169 203.941406 167.476562 204.855469 C 165.953125 205.769531 164.40625 206.644531 162.839844 207.484375 C 161.269531 208.320312 159.683594 209.121094 158.078125 209.878906 C 156.46875 210.640625 154.84375 211.359375 153.203125 212.039062 C 151.5625 212.722656 149.902344 213.359375 148.230469 213.960938 C 146.554688 214.558594 144.871094 215.117188 143.167969 215.632812 C 141.46875 216.148438 139.753906 216.621094 138.03125 217.054688 C 136.304688 217.484375 134.574219 217.875 132.828125 218.222656 C 131.085938 218.566406 129.335938 218.871094 127.578125 219.132812 C 125.820312 219.394531 124.054688 219.609375 122.285156 219.785156 C 120.519531 219.960938 118.746094 220.089844 116.96875 220.175781 C 115.195312 220.265625 113.417969 220.308594 111.640625 220.308594 C 109.863281 220.308594 108.085938 220.265625 106.3125 220.175781 C 104.535156 220.089844 102.765625 219.960938 100.996094 219.785156 C 99.226562 219.609375 97.464844 219.394531 95.707031 219.132812 C 93.949219 218.871094 92.195312 218.566406 90.453125 218.222656 C 88.710938 217.875 86.976562 217.484375 85.253906 217.054688 C 83.527344 216.621094 81.816406 216.148438 80.113281 215.632812 C 78.414062 215.117188 76.726562 214.558594 75.054688 213.960938 C 73.378906 213.359375 71.722656 212.722656 70.078125 212.039062 C 68.4375 211.359375 66.8125 210.640625 65.207031 209.878906 C 63.597656 209.121094 62.011719 208.320312 60.445312 207.484375 C 58.878906 206.644531 57.332031 205.769531 55.804688 204.855469 C 54.28125 203.941406 52.78125 202.992188 51.300781 202.003906 C 49.824219 201.015625 48.371094 199.992188 46.945312 198.933594 C 45.515625 197.875 44.117188 196.78125 42.742188 195.65625 C 41.367188 194.527344 40.023438 193.367188 38.707031 192.171875 C 37.386719 190.980469 36.101562 189.753906 34.84375 188.496094 C 33.589844 187.242188 32.363281 185.953125 31.167969 184.636719 C 29.976562 183.320312 28.816406 181.976562 27.6875 180.601562 C 26.558594 179.226562 25.464844 177.824219 24.40625 176.398438 C 23.347656 174.972656 22.324219 173.519531 21.339844 172.039062 C 20.351562 170.5625 19.398438 169.0625 18.484375 167.535156 C 17.574219 166.011719 16.695312 164.464844 15.859375 162.898438 C 15.019531 161.332031 14.222656 159.742188 13.460938 158.136719 C 12.703125 156.53125 11.980469 154.90625 11.300781 153.261719 C 10.621094 151.621094 9.980469 149.964844 9.382812 148.289062 C 8.785156 146.617188 8.226562 144.929688 7.710938 143.226562 C 7.195312 141.527344 6.722656 139.816406 6.289062 138.089844 C 5.859375 136.367188 5.46875 134.632812 5.121094 132.890625 C 4.773438 131.144531 4.472656 129.394531 4.210938 127.636719 C 3.949219 125.878906 3.730469 124.117188 3.558594 122.347656 C 3.382812 120.578125 3.253906 118.804688 3.164062 117.03125 C 3.078125 115.253906 3.035156 113.480469 3.035156 111.703125 C 3.035156 109.925781 3.078125 108.148438 3.164062 106.371094 C 3.253906 104.597656 3.382812 102.824219 3.558594 101.054688 C 3.730469 99.289062 3.949219 97.523438 4.210938 95.765625 C 4.472656 94.007812 4.773438 92.257812 5.121094 90.511719 C 5.46875 88.769531 5.859375 87.035156 6.289062 85.3125 C 6.722656 83.589844 7.195312 81.875 7.710938 80.175781 C 8.226562 78.472656 8.785156 76.785156 9.382812 75.113281 C 9.980469 73.4375 10.621094 71.78125 11.300781 70.140625 C 11.980469 68.496094 12.703125 66.871094 13.460938 65.265625 C 14.222656 63.660156 15.019531 62.070312 15.859375 60.503906 C 16.695312 58.9375 17.574219 57.390625 18.484375 55.867188 C 19.398438 54.34375 20.351562 52.839844 21.339844 51.363281 C 22.324219 49.886719 23.347656 48.433594 24.40625 47.003906 C 25.464844 45.578125 26.558594 44.175781 27.6875 42.800781 C 28.816406 41.429688 29.976562 40.082031 31.167969 38.765625 C 32.363281 37.449219 33.589844 36.160156 34.84375 34.90625 C 36.101562 33.648438 37.386719 32.421875 38.707031 31.230469 C 40.023438 30.035156 41.367188 28.875 42.742188 27.746094 C 44.117188 26.621094 45.515625 25.527344 46.945312 24.46875 C 48.371094 23.410156 49.824219 22.386719 51.300781 21.398438 C 52.78125 20.410156 54.28125 19.460938 55.804688 18.546875 C 57.332031 17.632812 58.878906 16.757812 60.445312 15.917969 C 62.011719 15.082031 63.597656 14.28125 65.207031 13.523438 C 66.8125 12.761719 68.4375 12.042969 70.078125 11.363281 C 71.722656 10.679688 73.378906 10.042969 75.054688 9.441406 C 76.726562 8.84375 78.414062 8.289062 80.113281 7.769531 C 81.816406 7.253906 83.527344 6.78125 85.253906 6.347656 C 86.976562 5.917969 88.710938 5.527344 90.453125 5.179688 C 92.195312 4.835938 93.949219 4.53125 95.707031 4.269531 C 97.464844 4.007812 99.226562 3.792969 100.996094 3.617188 C 102.765625 3.445312 104.535156 3.3125 106.3125 3.226562 C 108.085938 3.136719 109.863281 3.09375 111.640625 3.09375 L 111.640625 22.644531 C 110.183594 22.644531 108.726562 22.679688 107.273438 22.75 C 105.816406 22.824219 104.363281 22.929688 102.914062 23.074219 C 101.460938 23.214844 100.015625 23.394531 98.574219 23.609375 C 97.132812 23.820312 95.695312 24.070312 94.265625 24.355469 C 92.835938 24.640625 91.414062 24.957031 90.003906 25.3125 C 88.589844 25.667969 87.183594 26.054688 85.789062 26.480469 C 84.394531 26.902344 83.011719 27.359375 81.640625 27.851562 C 80.265625 28.339844 78.90625 28.863281 77.558594 29.421875 C 76.214844 29.980469 74.882812 30.570312 73.5625 31.195312 C 72.246094 31.816406 70.945312 32.472656 69.660156 33.160156 C 68.375 33.847656 67.105469 34.566406 65.855469 35.3125 C 64.605469 36.0625 63.375 36.84375 62.164062 37.652344 C 60.953125 38.460938 59.761719 39.300781 58.589844 40.167969 C 57.417969 41.039062 56.269531 41.933594 55.144531 42.859375 C 54.015625 43.785156 52.914062 44.734375 51.835938 45.714844 C 50.753906 46.691406 49.699219 47.699219 48.667969 48.726562 C 47.636719 49.757812 46.632812 50.8125 45.652344 51.894531 C 44.675781 52.972656 43.722656 54.078125 42.800781 55.203125 C 41.875 56.332031 40.976562 57.480469 40.109375 58.648438 C 39.242188 59.820312 38.402344 61.011719 37.59375 62.222656 C 36.78125 63.433594 36.003906 64.667969 35.253906 65.917969 C 34.503906 67.167969 33.785156 68.433594 33.101562 69.71875 C 32.414062 71.003906 31.757812 72.308594 31.132812 73.625 C 30.511719 74.941406 29.921875 76.273438 29.363281 77.621094 C 28.804688 78.96875 28.28125 80.328125 27.789062 81.699219 C 27.296875 83.070312 26.839844 84.453125 26.417969 85.847656 C 25.996094 87.242188 25.605469 88.648438 25.253906 90.0625 C 24.898438 91.476562 24.578125 92.898438 24.296875 94.328125 C 24.011719 95.757812 23.761719 97.191406 23.546875 98.632812 C 23.332031 100.074219 23.15625 101.523438 23.011719 102.972656 C 22.871094 104.421875 22.761719 105.875 22.691406 107.332031 C 22.621094 108.789062 22.582031 110.242188 22.582031 111.703125 C 22.582031 113.160156 22.621094 114.617188 22.691406 116.070312 C 22.761719 117.527344 22.871094 118.980469 23.011719 120.429688 C 23.15625 121.882812 23.332031 123.328125 23.546875 124.769531 C 23.761719 126.210938 24.011719 127.644531 24.296875 129.074219 C 24.578125 130.503906 24.898438 131.925781 25.253906 133.339844 C 25.605469 134.753906 25.996094 136.160156 26.417969 137.554688 C 26.839844 138.949219 27.296875 140.332031 27.789062 141.703125 C 28.28125 143.078125 28.804688 144.4375 29.363281 145.78125 C 29.921875 147.128906 30.511719 148.460938 31.132812 149.777344 C 31.757812 151.097656 32.414062 152.398438 33.101562 153.683594 C 33.785156 154.96875 34.503906 156.234375 35.253906 157.484375 C 36.003906 158.734375 36.78125 159.96875 37.59375 161.179688 C 38.402344 162.390625 39.242188 163.582031 40.109375 164.753906 C 40.976562 165.921875 41.875 167.074219 42.800781 168.199219 C 43.722656 169.324219 44.675781 170.429688 45.652344 171.507812 C 46.632812 172.589844 47.636719 173.644531 48.667969 174.675781 C 49.699219 175.707031 50.753906 176.710938 51.835938 177.6875 C 52.914062 178.667969 54.015625 179.621094 55.144531 180.542969 C 56.269531 181.46875 57.417969 182.363281 58.589844 183.234375 C 59.761719 184.101562 60.953125 184.941406 62.164062 185.75 C 63.375 186.558594 64.605469 187.339844 65.855469 188.089844 C 67.105469 188.839844 68.375 189.554688 69.660156 190.242188 C 70.945312 190.929688 72.246094 191.585938 73.5625 192.207031 C 74.882812 192.832031 76.214844 193.421875 77.5625 193.980469 C 78.90625 194.539062 80.265625 195.0625 81.640625 195.554688 C 83.011719 196.042969 84.394531 196.5 85.789062 196.925781 C 87.183594 197.347656 88.589844 197.734375 90.003906 198.089844 C 91.414062 198.445312 92.835938 198.761719 94.265625 199.046875 C 95.695312 199.332031 97.132812 199.582031 98.574219 199.796875 C 100.015625 200.007812 101.460938 200.1875 102.914062 200.332031 C 104.363281 200.472656 105.816406 200.582031 107.273438 200.652344 C 108.726562 200.722656 110.183594 200.757812 111.640625 200.757812 C 113.097656 200.757812 114.554688 200.722656 116.011719 200.652344 C 117.46875 200.582031 118.921875 200.472656 120.371094 200.332031 C 121.820312 200.1875 123.265625 200.007812 124.707031 199.796875 C 126.152344 199.582031 127.585938 199.332031 129.015625 199.046875 C 130.445312 198.761719 131.867188 198.445312 133.28125 198.089844 C 134.695312 197.734375 136.097656 197.347656 137.492188 196.925781 C 138.886719 196.5 140.273438 196.042969 141.644531 195.554688 C 143.015625 195.0625 144.375 194.539062 145.722656 193.980469 C 147.070312 193.421875 148.402344 192.832031 149.71875 192.207031 C 151.035156 191.585938 152.335938 190.929688 153.621094 190.242188 C 154.910156 189.554688 156.175781 188.839844 157.425781 188.089844 C 158.675781 187.339844 159.90625 186.558594 161.117188 185.75 C 162.332031 184.941406 163.523438 184.101562 164.691406 183.234375 C 165.863281 182.363281 167.011719 181.46875 168.140625 180.542969 C 169.265625 179.621094 170.367188 178.667969 171.449219 177.6875 C 172.527344 176.710938 173.585938 175.707031 174.613281 174.675781 C 175.644531 173.644531 176.648438 172.589844 177.628906 171.507812 C 178.609375 170.429688 179.558594 169.324219 180.484375 168.199219 C 181.410156 167.074219 182.304688 165.921875 183.171875 164.753906 C 184.042969 163.582031 184.878906 162.390625 185.691406 161.179688 C 186.5 159.96875 187.28125 158.734375 188.027344 157.484375 C 188.777344 156.234375 189.496094 154.96875 190.183594 153.683594 C 190.871094 152.398438 191.523438 151.097656 192.148438 149.777344 C 192.773438 148.460938 193.363281 147.128906 193.917969 145.78125 C 194.476562 144.4375 195.003906 143.078125 195.492188 141.703125 C 195.984375 140.332031 196.441406 138.949219 196.863281 137.554688 C 197.289062 136.160156 197.675781 134.753906 198.03125 133.339844 C 198.382812 131.925781 198.703125 130.503906 198.988281 129.074219 C 199.273438 127.644531 199.519531 126.210938 199.734375 124.769531 C 199.949219 123.328125 200.128906 121.882812 200.269531 120.429688 C 200.414062 118.980469 200.519531 117.527344 200.589844 116.070312 C 200.664062 114.617188 200.699219 113.160156 200.699219 111.703125 C 200.699219 110.242188 200.664062 108.789062 200.589844 107.332031 C 200.519531 105.875 200.414062 104.421875 200.269531 102.972656 C 200.128906 101.523438 199.949219 100.074219 199.734375 98.632812 C 199.519531 97.191406 199.273438 95.757812 198.988281 94.328125 C 198.703125 92.898438 198.382812 91.476562 198.03125 90.0625 C 197.675781 88.648438 197.289062 87.242188 196.863281 85.847656 C 196.441406 84.453125 195.984375 83.070312 195.492188 81.699219 C 195.003906 80.328125 194.476562 78.96875 193.917969 77.621094 C 193.363281 76.273438 192.773438 74.941406 192.148438 73.625 C 191.523438 72.308594 190.871094 71.003906 190.183594 69.71875 C 189.496094 68.433594 188.777344 67.167969 188.027344 65.917969 C 187.28125 64.667969 186.5 63.433594 185.691406 62.222656 C 184.878906 61.011719 184.042969 59.820312 183.171875 58.648438 C 182.304688 57.480469 181.410156 56.332031 180.484375 55.203125 C 179.558594 54.078125 178.609375 52.972656 177.628906 51.894531 C 176.648438 50.8125 175.644531 49.757812 174.613281 48.726562 C 173.585938 47.699219 172.527344 46.691406 171.449219 45.714844 C 170.367188 44.734375 169.265625 43.785156 168.140625 42.859375 C 167.011719 41.933594 165.863281 41.039062 164.691406 40.167969 C 163.523438 39.300781 162.332031 38.460938 161.117188 37.652344 C 159.90625 36.84375 158.675781 36.0625 157.425781 35.3125 C 156.175781 34.566406 154.910156 33.847656 153.621094 33.160156 C 152.335938 32.472656 151.035156 31.816406 149.71875 31.195312 C 148.402344 30.570312 147.070312 29.980469 145.722656 29.421875 C 144.375 28.863281 143.015625 28.339844 141.644531 27.851562 C 140.273438 27.359375 138.886719 26.902344 137.492188 26.480469 C 136.097656 26.054688 134.695312 25.667969 133.28125 25.3125 C 131.867188 24.957031 130.445312 24.640625 129.015625 24.355469 C 127.585938 24.070312 126.152344 23.820312 124.707031 23.609375 C 123.265625 23.394531 121.820312 23.214844 120.371094 23.074219 C 118.921875 22.929688 117.46875 22.824219 116.011719 22.75 C 114.554688 22.679688 113.097656 22.644531 111.640625 22.644531 Z M 111.640625 3.09375 " fill-opacity="1" fill-rule="nonzero"/><path fill="#ff8439" d="M 111.640625 3.09375 C 113.417969 3.09375 115.195312 3.136719 116.96875 3.226562 C 118.746094 3.3125 120.519531 3.445312 122.285156 3.617188 C 124.054688 3.792969 125.820312 4.007812 127.578125 4.269531 C 129.335938 4.53125 131.085938 4.835938 132.828125 5.179688 C 134.574219 5.527344 136.304688 5.917969 138.03125 6.347656 C 139.753906 6.78125 141.46875 7.253906 143.167969 7.769531 C 144.871094 8.289062 146.554688 8.84375 148.230469 9.441406 C 149.902344 10.042969 151.5625 10.679688 153.203125 11.363281 C 154.84375 12.042969 156.46875 12.761719 158.078125 13.523438 C 159.683594 14.28125 161.269531 15.082031 162.839844 15.917969 C 164.40625 16.757812 165.953125 17.632812 167.476562 18.546875 C 169 19.460938 170.503906 20.410156 171.980469 21.398438 C 173.457031 22.386719 174.910156 23.410156 176.339844 24.46875 C 177.765625 25.527344 179.167969 26.621094 180.539062 27.746094 C 181.914062 28.875 183.261719 30.035156 184.578125 31.230469 C 185.894531 32.421875 187.179688 33.648438 188.4375 34.90625 C 189.695312 36.160156 190.921875 37.449219 192.113281 38.765625 C 193.308594 40.082031 194.46875 41.429688 195.59375 42.800781 C 196.722656 44.175781 197.816406 45.578125 198.875 47.003906 C 199.933594 48.433594 200.957031 49.886719 201.945312 51.363281 C 202.933594 52.839844 203.882812 54.34375 204.796875 55.867188 C 205.710938 57.390625 206.585938 58.9375 207.425781 60.503906 C 208.261719 62.070312 209.0625 63.660156 209.820312 65.265625 C 210.582031 66.871094 211.300781 68.496094 211.980469 70.140625 C 212.660156 71.78125 213.300781 73.4375 213.898438 75.113281 C 214.5 76.785156 215.054688 78.472656 215.570312 80.175781 C 216.085938 81.875 216.5625 83.589844 216.992188 85.3125 C 217.425781 87.035156 217.816406 88.769531 218.160156 90.511719 C 218.507812 92.257812 218.8125 94.007812 219.074219 95.765625 C 219.332031 97.523438 219.550781 99.289062 219.726562 101.054688 C 219.898438 102.824219 220.03125 104.597656 220.117188 106.371094 C 220.203125 108.148438 220.25 109.925781 220.25 111.703125 C 220.25 113.480469 220.203125 115.253906 220.117188 117.03125 C 220.03125 118.804688 219.898438 120.578125 219.726562 122.347656 C 219.550781 124.117188 219.332031 125.878906 219.074219 127.636719 C 218.8125 129.394531 218.507812 131.144531 218.160156 132.890625 C 217.816406 134.632812 217.425781 136.367188 216.992188 138.089844 C 216.5625 139.816406 216.085938 141.527344 215.570312 143.226562 C 215.054688 144.929688 214.5 146.617188 213.898438 148.289062 C 213.300781 149.964844 212.660156 151.621094 211.980469 153.261719 C 211.300781 154.90625 210.582031 156.53125 209.820312 158.136719 C 209.0625 159.742188 208.261719 161.332031 207.425781 162.898438 C 206.585938 164.464844 205.710938 166.011719 204.796875 167.535156 C 203.882812 169.0625 202.933594 170.5625 201.945312 172.039062 C 200.957031 173.519531 199.933594 174.972656 198.875 176.398438 C 197.816406 177.824219 196.722656 179.226562 195.59375 180.601562 C 194.46875 181.976562 193.308594 183.320312 192.113281 184.636719 C 190.921875 185.953125 189.695312 187.242188 188.4375 188.496094 C 187.179688 189.753906 185.894531 190.980469 184.578125 192.171875 C 183.261719 193.367188 181.914062 194.527344 180.539062 195.65625 C 179.167969 196.78125 177.765625 197.875 176.339844 198.933594 C 174.910156 199.992188 173.457031 201.015625 171.980469 202.003906 C 170.503906 202.992188 169 203.941406 167.476562 204.855469 C 165.953125 205.769531 164.40625 206.644531 162.839844 207.484375 C 161.269531 208.320312 159.683594 209.121094 158.078125 209.878906 C 156.46875 210.640625 154.84375 211.359375 153.203125 212.039062 C 151.5625 212.722656 149.902344 213.359375 148.230469 213.960938 C 146.554688 214.558594 144.871094 215.117188 143.167969 215.632812 C 141.46875 216.148438 139.753906 216.621094 138.03125 217.054688 C 136.304688 217.484375 134.574219 217.875 132.828125 218.222656 C 131.085938 218.566406 129.335938 218.871094 127.578125 219.132812 C 125.820312 219.394531 124.054688 219.609375 122.285156 219.785156 C 120.519531 219.960938 118.746094 220.089844 116.96875 220.175781 C 115.195312 220.265625 113.417969 220.308594 111.640625 220.308594 C 109.863281 220.308594 108.085938 220.265625 106.3125 220.175781 C 104.535156 220.089844 102.765625 219.960938 100.996094 219.785156 C 99.226562 219.609375 97.464844 219.394531 95.707031 219.132812 C 93.949219 218.871094 92.195312 218.566406 90.453125 218.222656 C 88.710938 217.875 86.976562 217.484375 85.253906 217.054688 C 83.527344 216.621094 81.816406 216.148438 80.113281 215.632812 C 78.414062 215.117188 76.726562 214.558594 75.054688 213.960938 C 73.378906 213.359375 71.722656 212.722656 70.078125 212.039062 C 68.4375 211.359375 66.8125 210.640625 65.207031 209.878906 C 63.597656 209.121094 62.011719 208.320312 60.445312 207.484375 C 58.878906 206.644531 57.332031 205.769531 55.804688 204.855469 C 54.28125 203.941406 52.78125 202.992188 51.300781 202.003906 C 49.824219 201.015625 48.371094 199.992188 46.945312 198.933594 C 45.515625 197.875 44.117188 196.78125 42.742188 195.65625 C 41.367188 194.527344 40.023438 193.367188 38.707031 192.171875 C 37.386719 190.980469 36.101562 189.753906 34.84375 188.496094 C 33.589844 187.242188 32.363281 185.953125 31.167969 184.636719 C 29.976562 183.320312 28.816406 181.976562 27.6875 180.601562 C 26.558594 179.226562 25.464844 177.824219 24.40625 176.398438 C 23.347656 174.972656 22.324219 173.519531 21.339844 172.039062 C 20.351562 170.5625 19.398438 169.0625 18.484375 167.535156 C 17.574219 166.011719 16.695312 164.464844 15.859375 162.898438 C 15.019531 161.332031 14.222656 159.742188 13.460938 158.136719 C 12.703125 156.53125 11.980469 154.90625 11.300781 153.261719 C 10.621094 151.621094 9.980469 149.964844 9.382812 148.289062 C 8.785156 146.617188 8.226562 144.929688 7.710938 143.226562 C 7.195312 141.527344 6.722656 139.816406 6.289062 138.089844 C 5.859375 136.367188 5.46875 134.632812 5.121094 132.890625 C 4.773438 131.144531 4.472656 129.394531 4.210938 127.636719 C 3.949219 125.878906 3.730469 124.117188 3.558594 122.347656 C 3.382812 120.578125 3.253906 118.804688 3.164062 117.03125 C 3.078125 115.253906 3.035156 113.480469 3.035156 111.703125 C 3.035156 109.925781 3.078125 108.148438 3.164062 106.371094 C 3.253906 104.597656 3.382812 102.824219 3.558594 101.054688 C 3.730469 99.289062 3.949219 97.523438 4.210938 95.765625 C 4.472656 94.007812 4.773438 92.257812 5.121094 90.511719 C 5.46875 88.769531 5.859375 87.035156 6.289062 85.3125 C 6.722656 83.589844 7.195312 81.875 7.710938 80.175781 C 8.226562 78.472656 8.785156 76.785156 9.382812 75.113281 C 9.980469 73.4375 10.621094 71.78125 11.300781 70.140625 C 11.980469 68.496094 12.703125 66.871094 13.460938 65.265625 C 14.222656 63.660156 15.019531 62.070312 15.859375 60.503906 C 16.695312 58.9375 17.574219 57.390625 18.484375 55.867188 C 19.398438 54.34375 20.351562 52.839844 21.339844 51.363281 C 22.324219 49.886719 23.347656 48.433594 24.40625 47.003906 C 25.464844 45.578125 26.558594 44.175781 27.6875 42.800781 C 28.816406 41.429688 29.976562 40.082031 31.167969 38.765625 C 32.363281 37.449219 33.589844 36.160156 34.84375 34.90625 C 36.101562 33.648438 37.386719 32.421875 38.707031 31.230469 C 40.023438 30.035156 41.367188 28.875 42.742188 27.746094 C 44.117188 26.621094 45.515625 25.527344 46.945312 24.46875 C 48.371094 23.410156 49.824219 22.386719 51.300781 21.398438 C 52.78125 20.410156 54.28125 19.460938 55.804688 18.546875 C 57.332031 17.632812 58.878906 16.757812 60.445312 15.917969 C 62.011719 15.082031 63.597656 14.28125 65.207031 13.523438 C 66.8125 12.761719 68.4375 12.042969 70.078125 11.363281 C 71.722656 10.679688 73.378906 10.042969 75.054688 9.441406 C 76.726562 8.84375 78.414062 8.289062 80.113281 7.769531 C 81.816406 7.253906 83.527344 6.78125 85.253906 6.347656 C 86.976562 5.917969 88.710938 5.527344 90.453125 5.179688 C 92.195312 4.835938 93.949219 4.53125 95.707031 4.269531 C 97.464844 4.007812 99.226562 3.792969 100.996094 3.617188 C 102.765625 3.445312 104.535156 3.3125 106.3125 3.226562 C 108.085938 3.136719 109.863281 3.09375 111.640625 3.09375 L 111.640625 22.644531 C 110.183594 22.644531 108.726562 22.679688 107.273438 22.75 C 105.816406 22.824219 104.363281 22.929688 102.914062 23.074219 C 101.460938 23.214844 100.015625 23.394531 98.574219 23.609375 C 97.132812 23.820312 95.695312 24.070312 94.265625 24.355469 C 92.835938 24.640625 91.414062 24.957031 90.003906 25.3125 C 88.589844 25.667969 87.183594 26.054688 85.789062 26.480469 C 84.394531 26.902344 83.011719 27.359375 81.640625 27.851562 C 80.265625 28.339844 78.90625 28.863281 77.558594 29.421875 C 76.214844 29.980469 74.882812 30.570312 73.5625 31.195312 C 72.246094 31.816406 70.945312 32.472656 69.660156 33.160156 C 68.375 33.847656 67.105469 34.566406 65.855469 35.3125 C 64.605469 36.0625 63.375 36.84375 62.164062 37.652344 C 60.953125 38.460938 59.761719 39.300781 58.589844 40.167969 C 57.417969 41.039062 56.269531 41.933594 55.144531 42.859375 C 54.015625 43.785156 52.914062 44.734375 51.835938 45.714844 C 50.753906 46.691406 49.699219 47.699219 48.667969 48.726562 C 47.636719 49.757812 46.632812 50.8125 45.652344 51.894531 C 44.675781 52.972656 43.722656 54.078125 42.800781 55.203125 C 41.875 56.332031 40.976562 57.480469 40.109375 58.648438 C 39.242188 59.820312 38.402344 61.011719 37.59375 62.222656 C 36.78125 63.433594 36.003906 64.667969 35.253906 65.917969 C 34.503906 67.167969 33.785156 68.433594 33.101562 69.71875 C 32.414062 71.003906 31.757812 72.308594 31.132812 73.625 C 30.511719 74.941406 29.921875 76.273438 29.363281 77.621094 C 28.804688 78.96875 28.28125 80.328125 27.789062 81.699219 C 27.296875 83.070312 26.839844 84.453125 26.417969 85.847656 C 25.996094 87.242188 25.605469 88.648438 25.253906 90.0625 C 24.898438 91.476562 24.578125 92.898438 24.296875 94.328125 C 24.011719 95.757812 23.761719 97.191406 23.546875 98.632812 C 23.332031 100.074219 23.15625 101.523438 23.011719 102.972656 C 22.871094 104.421875 22.761719 105.875 22.691406 107.332031 C 22.621094 108.789062 22.582031 110.242188 22.582031 111.703125 C 22.582031 113.160156 22.621094 114.617188 22.691406 116.070312 C 22.761719 117.527344 22.871094 118.980469 23.011719 120.429688 C 23.15625 121.882812 23.332031 123.328125 23.546875 124.769531 C 23.761719 126.210938 24.011719 127.644531 24.296875 129.074219 C 24.578125 130.503906 24.898438 131.925781 25.253906 133.339844 C 25.605469 134.753906 25.996094 136.160156 26.417969 137.554688 C 26.839844 138.949219 27.296875 140.332031 27.789062 141.703125 C 28.28125 143.078125 28.804688 144.4375 29.363281 145.78125 C 29.921875 147.128906 30.511719 148.460938 31.132812 149.777344 C 31.757812 151.097656 32.414062 152.398438 33.101562 153.683594 C 33.785156 154.96875 34.503906 156.234375 35.253906 157.484375 C 36.003906 158.734375 36.78125 159.96875 37.59375 161.179688 C 38.402344 162.390625 39.242188 163.582031 40.109375 164.753906 C 40.976562 165.921875 41.875 167.074219 42.800781 168.199219 C 43.722656 169.324219 44.675781 170.429688 45.652344 171.507812 C 46.632812 172.589844 47.636719 173.644531 48.667969 174.675781 C 49.699219 175.707031 50.753906 176.710938 51.835938 177.6875 C 52.914062 178.667969 54.015625 179.621094 55.144531 180.542969 C 56.269531 181.46875 57.417969 182.363281 58.589844 183.234375 C 59.761719 184.101562 60.953125 184.941406 62.164062 185.75 C 63.375 186.558594 64.605469 187.339844 65.855469 188.089844 C 67.105469 188.839844 68.375 189.554688 69.660156 190.242188 C 70.945312 190.929688 72.246094 191.585938 73.5625 192.207031 C 74.882812 192.832031 76.214844 193.421875 77.5625 193.980469 C 78.90625 194.539062 80.265625 195.0625 81.640625 195.554688 C 83.011719 196.042969 84.394531 196.5 85.789062 196.925781 C 87.183594 197.347656 88.589844 197.734375 90.003906 198.089844 C 91.414062 198.445312 92.835938 198.761719 94.265625 199.046875 C 95.695312 199.332031 97.132812 199.582031 98.574219 199.796875 C 100.015625 200.007812 101.460938 200.1875 102.914062 200.332031 C 104.363281 200.472656 105.816406 200.582031 107.273438 200.652344 C 108.726562 200.722656 110.183594 200.757812 111.640625 200.757812 C 113.097656 200.757812 114.554688 200.722656 116.011719 200.652344 C 117.46875 200.582031 118.921875 200.472656 120.371094 200.332031 C 121.820312 200.1875 123.265625 200.007812 124.707031 199.796875 C 126.152344 199.582031 127.585938 199.332031 129.015625 199.046875 C 130.445312 198.761719 131.867188 198.445312 133.28125 198.089844 C 134.695312 197.734375 136.097656 197.347656 137.492188 196.925781 C 138.886719 196.5 140.273438 196.042969 141.644531 195.554688 C 143.015625 195.0625 144.375 194.539062 145.722656 193.980469 C 147.070312 193.421875 148.402344 192.832031 149.71875 192.207031 C 151.035156 191.585938 152.335938 190.929688 153.621094 190.242188 C 154.910156 189.554688 156.175781 188.839844 157.425781 188.089844 C 158.675781 187.339844 159.90625 186.558594 161.117188 185.75 C 162.332031 184.941406 163.523438 184.101562 164.691406 183.234375 C 165.863281 182.363281 167.011719 181.46875 168.140625 180.542969 C 169.265625 179.621094 170.367188 178.667969 171.449219 177.6875 C 172.527344 176.710938 173.585938 175.707031 174.613281 174.675781 C 175.644531 173.644531 176.648438 172.589844 177.628906 171.507812 C 178.609375 170.429688 179.558594 169.324219 180.484375 168.199219 C 181.410156 167.074219 182.304688 165.921875 183.171875 164.753906 C 184.042969 163.582031 184.878906 162.390625 185.691406 161.179688 C 186.5 159.96875 187.28125 158.734375 188.027344 157.484375 C 188.777344 156.234375 189.496094 154.96875 190.183594 153.683594 C 190.871094 152.398438 191.523438 151.097656 192.148438 149.777344 C 192.773438 148.460938 193.363281 147.128906 193.917969 145.78125 C 194.476562 144.4375 195.003906 143.078125 195.492188 141.703125 C 195.984375 140.332031 196.441406 138.949219 196.863281 137.554688 C 197.289062 136.160156 197.675781 134.753906 198.03125 133.339844 C 198.382812 131.925781 198.703125 130.503906 198.988281 129.074219 C 199.273438 127.644531 199.519531 126.210938 199.734375 124.769531 C 199.949219 123.328125 200.128906 121.882812 200.269531 120.429688 C 200.414062 118.980469 200.519531 117.527344 200.589844 116.070312 C 200.664062 114.617188 200.699219 113.160156 200.699219 111.703125 C 200.699219 110.242188 200.664062 108.789062 200.589844 107.332031 C 200.519531 105.875 200.414062 104.421875 200.269531 102.972656 C 200.128906 101.523438 199.949219 100.074219 199.734375 98.632812 C 199.519531 97.191406 199.273438 95.757812 198.988281 94.328125 C 198.703125 92.898438 198.382812 91.476562 198.03125 90.0625 C 197.675781 88.648438 197.289062 87.242188 196.863281 85.847656 C 196.441406 84.453125 195.984375 83.070312 195.492188 81.699219 C 195.003906 80.328125 194.476562 78.96875 193.917969 77.621094 C 193.363281 76.273438 192.773438 74.941406 192.148438 73.625 C 191.523438 72.308594 190.871094 71.003906 190.183594 69.71875 C 189.496094 68.433594 188.777344 67.167969 188.027344 65.917969 C 187.28125 64.667969 186.5 63.433594 185.691406 62.222656 C 184.878906 61.011719 184.042969 59.820312 183.171875 58.648438 C 182.304688 57.480469 181.410156 56.332031 180.484375 55.203125 C 179.558594 54.078125 178.609375 52.972656 177.628906 51.894531 C 176.648438 50.8125 175.644531 49.757812 174.613281 48.726562 C 173.585938 47.699219 172.527344 46.691406 171.449219 45.714844 C 170.367188 44.734375 169.265625 43.785156 168.140625 42.859375 C 167.011719 41.933594 165.863281 41.039062 164.691406 40.167969 C 163.523438 39.300781 162.332031 38.460938 161.117188 37.652344 C 159.90625 36.84375 158.675781 36.0625 157.425781 35.3125 C 156.175781 34.566406 154.910156 33.847656 153.621094 33.160156 C 152.335938 32.472656 151.035156 31.816406 149.71875 31.195312 C 148.402344 30.570312 147.070312 29.980469 145.722656 29.421875 C 144.375 28.863281 143.015625 28.339844 141.644531 27.851562 C 140.273438 27.359375 138.886719 26.902344 137.492188 26.480469 C 136.097656 26.054688 134.695312 25.667969 133.28125 25.3125 C 131.867188 24.957031 130.445312 24.640625 129.015625 24.355469 C 127.585938 24.070312 126.152344 23.820312 124.707031 23.609375 C 123.265625 23.394531 121.820312 23.214844 120.371094 23.074219 C 118.921875 22.929688 117.46875 22.824219 116.011719 22.75 C 114.554688 22.679688 113.097656 22.644531 111.640625 22.644531 Z M 111.640625 3.09375 " fill-opacity="1" fill-rule="nonzero"/></g></svg>