<svg xmlns="http://www.w3.org/2000/svg" xmlns:xlink="http://www.w3.org/1999/xlink" width="300" zoomAndPan="magnify" viewBox="0 0 224.87999 225" height="300" preserveAspectRatio="xMidYMid meet" version="1.0"><defs><g/><clipPath id="id1"><path d="M 3.035156 3.09375 L 220.25 3.09375 L 220.25 220.308594 L 3.035156 220.308594 Z M 3.035156 3.09375 " clip-rule="nonzero"/></clipPath></defs><g fill="#ffffff" fill-opacity="1"><g transform="translate(63.861958, 121.355364)"><g><path d="M 24.175781 -30.691406 L 1.328125 -30.691406 L 1.328125 -19.546875 L 8.445312 -19.546875 L 8.445312 -25.117188 L 16.589844 -25.117188 L 16.589844 -23.488281 L 6.945312 0 L 13.800781 0 L 24.175781 -25.890625 Z M 24.175781 -30.691406 "/></g></g></g><g fill="#ffffff" fill-opacity="1"><g transform="translate(89.231814, 121.355364)"><g><path d="M 17.1875 -20.230469 C 14.144531 -20.230469 11.402344 -19.160156 10.289062 -17.574219 L 9.945312 -17.574219 L 9.945312 -24.6875 L 24.519531 -24.6875 L 24.519531 -30.347656 L 2.527344 -30.347656 L 2.527344 -13.03125 L 9.945312 -13.03125 C 9.945312 -14.359375 11.574219 -15.257812 13.929688 -15.257812 C 16.332031 -15.257812 17.917969 -13.375 17.875 -10.542969 C 17.875 -7.328125 16.332031 -5.1875 13.972656 -5.1875 C 11.574219 -5.1875 9.945312 -7.328125 9.945312 -10.585938 L 2.527344 -10.585938 C 2.527344 -4.027344 7.117188 0.386719 14.015625 0.386719 C 20.832031 0.386719 25.332031 -4.070312 25.332031 -10.757812 C 25.332031 -16.460938 22.074219 -20.230469 17.1875 -20.230469 Z M 17.1875 -20.230469 "/></g></g></g><g fill="#ffffff" fill-opacity="1"><g transform="translate(116.487264, 121.355364)"><g><path d="M 9.042969 -13.117188 C 13.460938 -13.117188 16.417969 -16.460938 16.417969 -21.945312 C 16.417969 -27.21875 13.503906 -30.734375 9.042969 -30.734375 C 4.671875 -30.734375 1.757812 -27.132812 1.757812 -21.730469 C 1.757812 -16.589844 4.671875 -13.117188 9.042969 -13.117188 Z M 25.71875 -30.691406 L 11.957031 -0.0429688 L 17.144531 -0.0429688 L 30.90625 -30.691406 Z M 9.085938 -16.675781 C 7.628906 -16.675781 6.644531 -18.6875 6.644531 -21.730469 C 6.644531 -24.988281 7.628906 -27.175781 9.085938 -27.175781 C 10.5 -27.175781 11.488281 -24.988281 11.488281 -21.730469 C 11.488281 -18.6875 10.5 -16.675781 9.085938 -16.675781 Z M 33.863281 0.386719 C 38.320312 0.386719 41.277344 -3.300781 41.277344 -8.785156 C 41.277344 -13.84375 38.320312 -17.230469 33.863281 -17.230469 C 29.488281 -17.230469 26.574219 -13.84375 26.574219 -8.785156 C 26.574219 -3.300781 29.488281 0.386719 33.863281 0.386719 Z M 33.90625 -3.171875 C 32.449219 -3.171875 31.503906 -5.359375 31.503906 -8.660156 C 31.503906 -11.660156 32.449219 -13.671875 33.90625 -13.671875 C 35.320312 -13.671875 36.304688 -11.660156 36.304688 -8.660156 C 36.304688 -5.359375 35.320312 -3.171875 33.90625 -3.171875 Z M 33.90625 -3.171875 "/></g></g></g><g clip-path="url(#id1)"><path fill="#a43836" d="M 111.640625 3.09375 C 113.417969 3.09375 115.195312 3.136719 116.96875 3.226562 C 118.746094 3.3125 120.519531 3.445312 122.285156 3.617188 C 124.054688 3.792969 125.820312 4.007812 127.578125 4.269531 C 129.335938 4.53125 131.085938 4.835938 132.828125 5.179688 C 134.574219 5.527344 136.304688 5.917969 138.03125 6.347656 C 139.753906 6.78125 141.46875 7.253906 143.167969 7.769531 C 144.871094 8.289062 146.554688 8.84375 148.230469 9.441406 C 149.902344 10.042969 151.5625 10.679688 153.203125 11.363281 C 154.84375 12.042969 156.46875 12.761719 158.078125 13.523438 C 159.683594 14.28125 161.269531 15.082031 162.839844 15.917969 C 164.40625 16.757812 165.953125 17.632812 167.476562 18.546875 C 169 19.460938 170.503906 20.410156 171.980469 21.398438 C 173.457031 22.386719 174.910156 23.410156 176.339844 24.46875 C 177.765625 25.527344 179.167969 26.621094 180.539062 27.746094 C 181.914062 28.875 183.261719 30.035156 184.578125 31.230469 C 185.894531 32.421875 187.179688 33.648438 188.4375 34.90625 C 189.695312 36.160156 190.921875 37.449219 192.113281 38.765625 C 193.308594 40.082031 194.46875 41.429688 195.59375 42.800781 C 196.722656 44.175781 197.816406 45.578125 198.875 47.003906 C 199.933594 48.433594 200.957031 49.886719 201.945312 51.363281 C 202.933594 52.839844 203.882812 54.34375 204.796875 55.867188 C 205.710938 57.390625 206.585938 58.9375 207.425781 60.503906 C 208.261719 62.070312 209.0625 63.660156 209.820312 65.265625 C 210.582031 66.871094 211.300781 68.496094 211.980469 70.140625 C 212.660156 71.78125 213.300781 73.4375 213.898438 75.113281 C 214.5 76.785156 215.054688 78.472656 215.570312 80.175781 C 216.085938 81.875 216.5625 83.589844 216.992188 85.3125 C 217.425781 87.035156 217.816406 88.769531 218.160156 90.511719 C 218.507812 92.257812 218.8125 94.007812 219.074219 95.765625 C 219.332031 97.523438 219.550781 99.289062 219.726562 101.054688 C 219.898438 102.824219 220.03125 104.597656 220.117188 106.371094 C 220.203125 108.148438 220.25 109.925781 220.25 111.703125 C 220.25 113.480469 220.203125 115.253906 220.117188 117.03125 C 220.03125 118.804688 219.898438 120.578125 219.726562 122.347656 C 219.550781 124.117188 219.332031 125.878906 219.074219 127.636719 C 218.8125 129.394531 218.507812 131.144531 218.160156 132.890625 C 217.816406 134.632812 217.425781 136.367188 216.992188 138.089844 C 216.5625 139.816406 216.085938 141.527344 215.570312 143.226562 C 215.054688 144.929688 214.5 146.617188 213.898438 148.289062 C 213.300781 149.964844 212.660156 151.621094 211.980469 153.261719 C 211.300781 154.90625 210.582031 156.53125 209.820312 158.136719 C 209.0625 159.742188 208.261719 161.332031 207.425781 162.898438 C 206.585938 164.464844 205.710938 166.011719 204.796875 167.535156 C 203.882812 169.0625 202.933594 170.5625 201.945312 172.039062 C 200.957031 173.519531 199.933594 174.972656 198.875 176.398438 C 197.816406 177.824219 196.722656 179.226562 195.59375 180.601562 C 194.46875 181.976562 193.308594 183.320312 192.113281 184.636719 C 190.921875 185.953125 189.695312 187.242188 188.4375 188.496094 C 187.179688 189.753906 185.894531 190.980469 184.578125 192.171875 C 183.261719 193.367188 181.914062 194.527344 180.539062 195.65625 C 179.167969 196.78125 177.765625 197.875 176.339844 198.933594 C 174.910156 199.992188 173.457031 201.015625 171.980469 202.003906 C 170.503906 202.992188 169 203.941406 167.476562 204.855469 C 165.953125 205.769531 164.40625 206.644531 162.839844 207.484375 C 161.269531 208.320312 159.683594 209.121094 158.078125 209.878906 C 156.46875 210.640625 154.84375 211.359375 153.203125 212.039062 C 151.5625 212.722656 149.902344 213.359375 148.230469 213.960938 C 146.554688 214.558594 144.871094 215.117188 143.167969 215.632812 C 141.46875 216.148438 139.753906 216.621094 138.03125 217.054688 C 136.304688 217.484375 134.574219 217.875 132.828125 218.222656 C 131.085938 218.566406 129.335938 218.871094 127.578125 219.132812 C 125.820312 219.394531 124.054688 219.609375 122.285156 219.785156 C 120.519531 219.960938 118.746094 220.089844 116.96875 220.175781 C 115.195312 220.265625 113.417969 220.308594 111.640625 220.308594 C 109.863281 220.308594 108.085938 220.265625 106.3125 220.175781 C 104.535156 220.089844 102.765625 219.960938 100.996094 219.785156 C 99.226562 219.609375 97.464844 219.394531 95.707031 219.132812 C 93.949219 218.871094 92.195312 218.566406 90.453125 218.222656 C 88.710938 217.875 86.976562 217.484375 85.253906 217.054688 C 83.527344 216.621094 81.816406 216.148438 80.113281 215.632812 C 78.414062 215.117188 76.726562 214.558594 75.054688 213.960938 C 73.378906 213.359375 71.722656 212.722656 70.078125 212.039062 C 68.4375 211.359375 66.8125 210.640625 65.207031 209.878906 C 63.597656 209.121094 62.011719 208.320312 60.445312 207.484375 C 58.878906 206.644531 57.332031 205.769531 55.804688 204.855469 C 54.28125 203.941406 52.78125 202.992188 51.300781 202.003906 C 49.824219 201.015625 48.371094 199.992188 46.945312 198.933594 C 45.515625 197.875 44.117188 196.78125 42.742188 195.65625 C 41.367188 194.527344 40.023438 193.367188 38.707031 192.171875 C 37.386719 190.980469 36.101562 189.753906 34.84375 188.496094 C 33.589844 187.242188 32.363281 185.953125 31.167969 184.636719 C 29.976562 183.320312 28.816406 181.976562 27.6875 180.601562 C 26.558594 179.226562 25.464844 177.824219 24.40625 176.398438 C 23.347656 174.972656 22.324219 173.519531 21.339844 172.039062 C 20.351562 170.5625 19.398438 169.0625 18.484375 167.535156 C 17.574219 166.011719 16.695312 164.464844 15.859375 162.898438 C 15.019531 161.332031 14.222656 159.742188 13.460938 158.136719 C 12.703125 156.53125 11.980469 154.90625 11.300781 153.261719 C 10.621094 151.621094 9.980469 149.964844 9.382812 148.289062 C 8.785156 146.617188 8.226562 144.929688 7.710938 143.226562 C 7.195312 141.527344 6.722656 139.816406 6.289062 138.089844 C 5.859375 136.367188 5.46875 134.632812 5.121094 132.890625 C 4.773438 131.144531 4.472656 129.394531 4.210938 127.636719 C 3.949219 125.878906 3.730469 124.117188 3.558594 122.347656 C 3.382812 120.578125 3.253906 118.804688 3.164062 117.03125 C 3.078125 115.253906 3.035156 113.480469 3.035156 111.703125 C 3.035156 109.925781 3.078125 108.148438 3.164062 106.371094 C 3.253906 104.597656 3.382812 102.824219 3.558594 101.054688 C 3.730469 99.289062 3.949219 97.523438 4.210938 95.765625 C 4.472656 94.007812 4.773438 92.257812 5.121094 90.511719 C 5.46875 88.769531 5.859375 87.035156 6.289062 85.3125 C 6.722656 83.589844 7.195312 81.875 7.710938 80.175781 C 8.226562 78.472656 8.785156 76.785156 9.382812 75.113281 C 9.980469 73.4375 10.621094 71.78125 11.300781 70.140625 C 11.980469 68.496094 12.703125 66.871094 13.460938 65.265625 C 14.222656 63.660156 15.019531 62.070312 15.859375 60.503906 C 16.695312 58.9375 17.574219 57.390625 18.484375 55.867188 C 19.398438 54.34375 20.351562 52.839844 21.339844 51.363281 C 22.324219 49.886719 23.347656 48.433594 24.40625 47.003906 C 25.464844 45.578125 26.558594 44.175781 27.6875 42.800781 C 28.816406 41.429688 29.976562 40.082031 31.167969 38.765625 C 32.363281 37.449219 33.589844 36.160156 34.84375 34.90625 C 36.101562 33.648438 37.386719 32.421875 38.707031 31.230469 C 40.023438 30.035156 41.367188 28.875 42.742188 27.746094 C 44.117188 26.621094 45.515625 25.527344 46.945312 24.46875 C 48.371094 23.410156 49.824219 22.386719 51.300781 21.398438 C 52.78125 20.410156 54.28125 19.460938 55.804688 18.546875 C 57.332031 17.632812 58.878906 16.757812 60.445312 15.917969 C 62.011719 15.082031 63.597656 14.28125 65.207031 13.523438 C 66.8125 12.761719 68.4375 12.042969 70.078125 11.363281 C 71.722656 10.679688 73.378906 10.042969 75.054688 9.441406 C 76.726562 8.84375 78.414062 8.289062 80.113281 7.769531 C 81.816406 7.253906 83.527344 6.78125 85.253906 6.347656 C 86.976562 5.917969 88.710938 5.527344 90.453125 5.179688 C 92.195312 4.835938 93.949219 4.53125 95.707031 4.269531 C 97.464844 4.007812 99.226562 3.792969 100.996094 3.617188 C 102.765625 3.445312 104.535156 3.3125 106.3125 3.226562 C 108.085938 3.136719 109.863281 3.09375 111.640625 3.09375 L 111.640625 22.644531 C 110.183594 22.644531 108.726562 22.679688 107.273438 22.75 C 105.816406 22.824219 104.363281 22.929688 102.914062 23.074219 C 101.460938 23.214844 100.015625 23.394531 98.574219 23.609375 C 97.132812 23.820312 95.695312 24.070312 94.265625 24.355469 C 92.835938 24.640625 91.414062 24.957031 90.003906 25.3125 C 88.589844 25.667969 87.183594 26.054688 85.789062 26.480469 C 84.394531 26.902344 83.011719 27.359375 81.640625 27.851562 C 80.265625 28.339844 78.90625 28.863281 77.558594 29.421875 C 76.214844 29.980469 74.882812 30.570312 73.5625 31.195312 C 72.246094 31.816406 70.945312 32.472656 69.660156 33.160156 C 68.375 33.847656 67.105469 34.566406 65.855469 35.3125 C 64.605469 36.0625 63.375 36.84375 62.164062 37.652344 C 60.953125 38.460938 59.761719 39.300781 58.589844 40.167969 C 57.417969 41.039062 56.269531 41.933594 55.144531 42.859375 C 54.015625 43.785156 52.914062 44.734375 51.835938 45.714844 C 50.753906 46.691406 49.699219 47.699219 48.667969 48.726562 C 47.636719 49.757812 46.632812 50.8125 45.652344 51.894531 C 44.675781 52.972656 43.722656 54.078125 42.800781 55.203125 C 41.875 56.332031 40.976562 57.480469 40.109375 58.648438 C 39.242188 59.820312 38.402344 61.011719 37.59375 62.222656 C 36.78125 63.433594 36.003906 64.667969 35.253906 65.917969 C 34.503906 67.167969 33.785156 68.433594 33.101562 69.71875 C 32.414062 71.003906 31.757812 72.308594 31.132812 73.625 C 30.511719 74.941406 29.921875 76.273438 29.363281 77.621094 C 28.804688 78.96875 28.28125 80.328125 27.789062 81.699219 C 27.296875 83.070312 26.839844 84.453125 26.417969 85.847656 C 25.996094 87.242188 25.605469 88.648438 25.253906 90.0625 C 24.898438 91.476562 24.578125 92.898438 24.296875 94.328125 C 24.011719 95.757812 23.761719 97.191406 23.546875 98.632812 C 23.332031 100.074219 23.15625 101.523438 23.011719 102.972656 C 22.871094 104.421875 22.761719 105.875 22.691406 107.332031 C 22.621094 108.789062 22.582031 110.242188 22.582031 111.703125 C 22.582031 113.160156 22.621094 114.617188 22.691406 116.070312 C 22.761719 117.527344 22.871094 118.980469 23.011719 120.429688 C 23.15625 121.882812 23.332031 123.328125 23.546875 124.769531 C 23.761719 126.210938 24.011719 127.644531 24.296875 129.074219 C 24.578125 130.503906 24.898438 131.925781 25.253906 133.339844 C 25.605469 134.753906 25.996094 136.160156 26.417969 137.554688 C 26.839844 138.949219 27.296875 140.332031 27.789062 141.703125 C 28.28125 143.078125 28.804688 144.4375 29.363281 145.78125 C 29.921875 147.128906 30.511719 148.460938 31.132812 149.777344 C 31.757812 151.097656 32.414062 152.398438 33.101562 153.683594 C 33.785156 154.96875 34.503906 156.234375 35.253906 157.484375 C 36.003906 158.734375 36.78125 159.96875 37.59375 161.179688 C 38.402344 162.390625 39.242188 163.582031 40.109375 164.753906 C 40.976562 165.921875 41.875 167.074219 42.800781 168.199219 C 43.722656 169.324219 44.675781 170.429688 45.652344 171.507812 C 46.632812 172.589844 47.636719 173.644531 48.667969 174.675781 C 49.699219 175.707031 50.753906 176.710938 51.835938 177.6875 C 52.914062 178.667969 54.015625 179.621094 55.144531 180.542969 C 56.269531 181.46875 57.417969 182.363281 58.589844 183.234375 C 59.761719 184.101562 60.953125 184.941406 62.164062 185.75 C 63.375 186.558594 64.605469 187.339844 65.855469 188.089844 C 67.105469 188.839844 68.375 189.554688 69.660156 190.242188 C 70.945312 190.929688 72.246094 191.585938 73.5625 192.207031 C 74.882812 192.832031 76.214844 193.421875 77.5625 193.980469 C 78.90625 194.539062 80.265625 195.0625 81.640625 195.554688 C 83.011719 196.042969 84.394531 196.5 85.789062 196.925781 C 87.183594 197.347656 88.589844 197.734375 90.003906 198.089844 C 91.414062 198.445312 92.835938 198.761719 94.265625 199.046875 C 95.695312 199.332031 97.132812 199.582031 98.574219 199.796875 C 100.015625 200.007812 101.460938 200.1875 102.914062 200.332031 C 104.363281 200.472656 105.816406 200.582031 107.273438 200.652344 C 108.726562 200.722656 110.183594 200.757812 111.640625 200.757812 C 113.097656 200.757812 114.554688 200.722656 116.011719 200.652344 C 117.46875 200.582031 118.921875 200.472656 120.371094 200.332031 C 121.820312 200.1875 123.265625 200.007812 124.707031 199.796875 C 126.152344 199.582031 127.585938 199.332031 129.015625 199.046875 C 130.445312 198.761719 131.867188 198.445312 133.28125 198.089844 C 134.695312 197.734375 136.097656 197.347656 137.492188 196.925781 C 138.886719 196.5 140.273438 196.042969 141.644531 195.554688 C 143.015625 195.0625 144.375 194.539062 145.722656 193.980469 C 147.070312 193.421875 148.402344 192.832031 149.71875 192.207031 C 151.035156 191.585938 152.335938 190.929688 153.621094 190.242188 C 154.910156 189.554688 156.175781 188.839844 157.425781 188.089844 C 158.675781 187.339844 159.90625 186.558594 161.117188 185.75 C 162.332031 184.941406 163.523438 184.101562 164.691406 183.234375 C 165.863281 182.363281 167.011719 181.46875 168.140625 180.542969 C 169.265625 179.621094 170.367188 178.667969 171.449219 177.6875 C 172.527344 176.710938 173.585938 175.707031 174.613281 174.675781 C 175.644531 173.644531 176.648438 172.589844 177.628906 171.507812 C 178.609375 170.429688 179.558594 169.324219 180.484375 168.199219 C 181.410156 167.074219 182.304688 165.921875 183.171875 164.753906 C 184.042969 163.582031 184.878906 162.390625 185.691406 161.179688 C 186.5 159.96875 187.28125 158.734375 188.027344 157.484375 C 188.777344 156.234375 189.496094 154.96875 190.183594 153.683594 C 190.871094 152.398438 191.523438 151.097656 192.148438 149.777344 C 192.773438 148.460938 193.363281 147.128906 193.917969 145.78125 C 194.476562 144.4375 195.003906 143.078125 195.492188 141.703125 C 195.984375 140.332031 196.441406 138.949219 196.863281 137.554688 C 197.289062 136.160156 197.675781 134.753906 198.03125 133.339844 C 198.382812 131.925781 198.703125 130.503906 198.988281 129.074219 C 199.273438 127.644531 199.519531 126.210938 199.734375 124.769531 C 199.949219 123.328125 200.128906 121.882812 200.269531 120.429688 C 200.414062 118.980469 200.519531 117.527344 200.589844 116.070312 C 200.664062 114.617188 200.699219 113.160156 200.699219 111.703125 C 200.699219 110.242188 200.664062 108.789062 200.589844 107.332031 C 200.519531 105.875 200.414062 104.421875 200.269531 102.972656 C 200.128906 101.523438 199.949219 100.074219 199.734375 98.632812 C 199.519531 97.191406 199.273438 95.757812 198.988281 94.328125 C 198.703125 92.898438 198.382812 91.476562 198.03125 90.0625 C 197.675781 88.648438 197.289062 87.242188 196.863281 85.847656 C 196.441406 84.453125 195.984375 83.070312 195.492188 81.699219 C 195.003906 80.328125 194.476562 78.96875 193.917969 77.621094 C 193.363281 76.273438 192.773438 74.941406 192.148438 73.625 C 191.523438 72.308594 190.871094 71.003906 190.183594 69.71875 C 189.496094 68.433594 188.777344 67.167969 188.027344 65.917969 C 187.28125 64.667969 186.5 63.433594 185.691406 62.222656 C 184.878906 61.011719 184.042969 59.820312 183.171875 58.648438 C 182.304688 57.480469 181.410156 56.332031 180.484375 55.203125 C 179.558594 54.078125 178.609375 52.972656 177.628906 51.894531 C 176.648438 50.8125 175.644531 49.757812 174.613281 48.726562 C 173.585938 47.699219 172.527344 46.691406 171.449219 45.714844 C 170.367188 44.734375 169.265625 43.785156 168.140625 42.859375 C 167.011719 41.933594 165.863281 41.039062 164.691406 40.167969 C 163.523438 39.300781 162.332031 38.460938 161.117188 37.652344 C 159.90625 36.84375 158.675781 36.0625 157.425781 35.3125 C 156.175781 34.566406 154.910156 33.847656 153.621094 33.160156 C 152.335938 32.472656 151.035156 31.816406 149.71875 31.195312 C 148.402344 30.570312 147.070312 29.980469 145.722656 29.421875 C 144.375 28.863281 143.015625 28.339844 141.644531 27.851562 C 140.273438 27.359375 138.886719 26.902344 137.492188 26.480469 C 136.097656 26.054688 134.695312 25.667969 133.28125 25.3125 C 131.867188 24.957031 130.445312 24.640625 129.015625 24.355469 C 127.585938 24.070312 126.152344 23.820312 124.707031 23.609375 C 123.265625 23.394531 121.820312 23.214844 120.371094 23.074219 C 118.921875 22.929688 117.46875 22.824219 116.011719 22.75 C 114.554688 22.679688 113.097656 22.644531 111.640625 22.644531 Z M 111.640625 3.09375 " fill-opacity="1" fill-rule="nonzero"/><path fill="#ff8439" d="M 122.382812 3.628906 C 124.078125 3.796875 125.765625 4.003906 127.449219 4.25 C 129.136719 4.5 130.8125 4.785156 132.484375 5.113281 C 134.15625 5.441406 135.816406 5.804688 137.472656 6.210938 C 139.125 6.617188 140.769531 7.058594 142.402344 7.542969 C 144.035156 8.023438 145.65625 8.542969 147.265625 9.101562 C 148.871094 9.660156 150.46875 10.257812 152.046875 10.890625 C 153.628906 11.523438 155.191406 12.195312 156.742188 12.902344 C 158.289062 13.609375 159.820312 14.351562 161.335938 15.128906 C 162.851562 15.910156 164.34375 16.722656 165.820312 17.574219 C 167.296875 18.421875 168.75 19.304688 170.183594 20.222656 C 171.617188 21.140625 173.03125 22.09375 174.421875 23.078125 C 175.808594 24.0625 177.175781 25.078125 178.515625 26.125 C 179.859375 27.175781 181.175781 28.253906 182.464844 29.363281 C 183.757812 30.476562 185.019531 31.613281 186.257812 32.785156 C 187.496094 33.953125 188.703125 35.152344 189.882812 36.378906 C 191.066406 37.605469 192.21875 38.859375 193.339844 40.140625 C 194.460938 41.421875 195.550781 42.726562 196.613281 44.058594 C 197.671875 45.390625 198.703125 46.75 199.699219 48.128906 C 200.695312 49.507812 201.660156 50.914062 202.589844 52.339844 C 203.519531 53.765625 204.417969 55.210938 205.277344 56.679688 C 206.140625 58.148438 206.96875 59.632812 207.761719 61.140625 C 208.554688 62.648438 209.3125 64.171875 210.03125 65.714844 C 210.753906 67.257812 211.4375 68.816406 212.085938 70.390625 C 212.734375 71.964844 213.34375 73.554688 213.914062 75.160156 C 214.488281 76.761719 215.023438 78.378906 215.519531 80.007812 C 216.015625 81.636719 216.476562 83.273438 216.894531 84.925781 C 217.316406 86.574219 217.695312 88.234375 218.039062 89.902344 C 218.378906 91.570312 218.683594 93.246094 218.945312 94.925781 C 219.207031 96.609375 219.429688 98.296875 219.613281 99.988281 C 219.796875 101.683594 219.941406 103.378906 220.046875 105.078125 C 220.148438 106.777344 220.214844 108.476562 220.238281 110.179688 C 220.261719 111.882812 220.246094 113.585938 220.1875 115.285156 C 220.132812 116.988281 220.035156 118.6875 219.902344 120.386719 C 219.765625 122.082031 219.589844 123.777344 219.371094 125.464844 C 219.15625 127.152344 218.902344 128.835938 218.605469 130.511719 C 218.3125 132.191406 217.976562 133.859375 217.605469 135.519531 C 217.230469 137.183594 216.820312 138.832031 216.367188 140.476562 C 215.917969 142.117188 215.425781 143.746094 214.898438 145.367188 C 214.371094 146.984375 213.804688 148.589844 213.203125 150.183594 C 212.597656 151.773438 211.957031 153.351562 211.28125 154.914062 C 210.605469 156.476562 209.890625 158.023438 209.140625 159.550781 C 208.390625 161.078125 207.605469 162.589844 206.78125 164.082031 C 205.960938 165.570312 205.105469 167.042969 204.214844 168.496094 C 203.324219 169.945312 202.402344 171.375 201.445312 172.785156 C 200.484375 174.191406 199.496094 175.574219 198.472656 176.9375 C 197.449219 178.296875 196.394531 179.636719 195.308594 180.945312 C 194.226562 182.257812 193.109375 183.542969 191.964844 184.804688 C 190.816406 186.0625 189.640625 187.292969 188.4375 188.496094 C 187.234375 189.703125 186.003906 190.878906 184.742188 192.023438 C 183.484375 193.167969 182.199219 194.285156 180.886719 195.371094 C 179.574219 196.457031 178.238281 197.511719 176.878906 198.53125 C 175.515625 199.554688 174.132812 200.546875 172.722656 201.503906 C 171.316406 202.460938 169.886719 203.386719 168.433594 204.277344 C 166.984375 205.164062 165.511719 206.023438 164.019531 206.84375 C 162.527344 207.664062 161.019531 208.449219 159.492188 209.199219 C 157.960938 209.949219 156.417969 210.664062 154.855469 211.339844 C 153.292969 212.019531 151.714844 212.660156 150.121094 213.261719 C 148.53125 213.867188 146.925781 214.429688 145.304688 214.957031 C 143.6875 215.488281 142.058594 215.976562 140.414062 216.425781 C 138.773438 216.878906 137.121094 217.289062 135.460938 217.664062 C 133.800781 218.039062 132.128906 218.371094 130.453125 218.667969 C 128.777344 218.960938 127.09375 219.21875 125.40625 219.433594 C 123.714844 219.648438 122.023438 219.824219 120.324219 219.960938 C 118.628906 220.097656 116.929688 220.191406 115.226562 220.25 C 113.523438 220.304688 111.824219 220.320312 110.121094 220.296875 C 108.417969 220.273438 106.71875 220.210938 105.019531 220.105469 C 103.316406 220.003906 101.621094 219.859375 99.929688 219.675781 C 98.238281 219.492188 96.550781 219.269531 94.867188 219.003906 C 93.183594 218.742188 91.507812 218.441406 89.839844 218.097656 C 88.171875 217.757812 86.515625 217.375 84.863281 216.957031 C 83.214844 216.535156 81.574219 216.078125 79.945312 215.582031 C 78.316406 215.082031 76.703125 214.546875 75.097656 213.976562 C 73.496094 213.402344 71.90625 212.792969 70.332031 212.144531 C 68.757812 211.496094 67.199219 210.8125 65.65625 210.09375 C 64.113281 209.371094 62.589844 208.613281 61.082031 207.820312 C 59.574219 207.027344 58.085938 206.203125 56.617188 205.339844 C 55.152344 204.476562 53.703125 203.578125 52.277344 202.648438 C 50.851562 201.71875 49.449219 200.753906 48.070312 199.757812 C 46.6875 198.761719 45.332031 197.734375 44 196.671875 C 42.667969 195.613281 41.359375 194.519531 40.082031 193.398438 C 38.800781 192.277344 37.546875 191.125 36.320312 189.945312 C 35.09375 188.765625 33.894531 187.554688 32.722656 186.316406 C 31.554688 185.082031 30.414062 183.816406 29.304688 182.527344 C 28.195312 181.234375 27.113281 179.917969 26.066406 178.578125 C 25.019531 177.234375 24 175.871094 23.015625 174.480469 C 22.03125 173.089844 21.082031 171.679688 20.164062 170.246094 C 19.246094 168.8125 18.363281 167.355469 17.511719 165.878906 C 16.664062 164.40625 15.851562 162.910156 15.070312 161.394531 C 14.292969 159.882812 13.546875 158.351562 12.839844 156.800781 C 12.132812 155.253906 11.464844 153.6875 10.832031 152.105469 C 10.195312 150.527344 9.601562 148.933594 9.042969 147.324219 C 8.484375 145.714844 7.964844 144.09375 7.480469 142.460938 C 7 140.828125 6.554688 139.183594 6.152344 137.53125 C 5.746094 135.878906 5.378906 134.214844 5.054688 132.542969 C 4.726562 130.875 4.4375 129.195312 4.191406 127.511719 C 3.945312 125.828125 3.734375 124.136719 3.566406 122.441406 C 3.503906 121.804688 3.503906 121.164062 3.566406 120.527344 C 3.625 119.886719 3.75 119.261719 3.9375 118.644531 C 4.121094 118.03125 4.367188 117.441406 4.667969 116.875 C 4.96875 116.308594 5.324219 115.777344 5.730469 115.28125 C 6.136719 114.78125 6.589844 114.332031 7.085938 113.921875 C 7.582031 113.515625 8.113281 113.160156 8.675781 112.855469 C 9.242188 112.554688 9.832031 112.308594 10.449219 112.121094 C 11.0625 111.933594 11.6875 111.808594 12.328125 111.746094 C 12.964844 111.683594 13.605469 111.683594 14.242188 111.746094 C 14.882812 111.808594 15.507812 111.929688 16.125 112.117188 C 16.738281 112.300781 17.328125 112.546875 17.894531 112.847656 C 18.460938 113.152344 18.992188 113.503906 19.488281 113.914062 C 19.984375 114.320312 20.4375 114.769531 20.84375 115.265625 C 21.253906 115.761719 21.609375 116.292969 21.910156 116.859375 C 22.214844 117.425781 22.457031 118.015625 22.644531 118.628906 C 22.832031 119.242188 22.957031 119.871094 23.019531 120.507812 C 23.160156 121.898438 23.328125 123.285156 23.53125 124.664062 C 23.734375 126.046875 23.972656 127.421875 24.238281 128.792969 C 24.507812 130.164062 24.808594 131.527344 25.140625 132.882812 C 25.472656 134.238281 25.835938 135.585938 26.230469 136.925781 C 26.625 138.265625 27.050781 139.59375 27.511719 140.910156 C 27.96875 142.230469 28.457031 143.539062 28.976562 144.835938 C 29.496094 146.128906 30.046875 147.414062 30.625 148.683594 C 31.207031 149.953125 31.816406 151.210938 32.453125 152.449219 C 33.09375 153.691406 33.761719 154.917969 34.457031 156.128906 C 35.152344 157.339844 35.878906 158.53125 36.628906 159.707031 C 37.382812 160.882812 38.164062 162.039062 38.96875 163.179688 C 39.777344 164.320312 40.609375 165.4375 41.46875 166.539062 C 42.328125 167.640625 43.214844 168.71875 44.125 169.777344 C 45.035156 170.835938 45.96875 171.871094 46.929688 172.886719 C 47.890625 173.902344 48.871094 174.890625 49.878906 175.859375 C 50.882812 176.828125 51.910156 177.773438 52.960938 178.691406 C 54.011719 179.613281 55.082031 180.507812 56.175781 181.378906 C 57.265625 182.246094 58.378906 183.089844 59.511719 183.90625 C 60.644531 184.726562 61.792969 185.515625 62.964844 186.277344 C 64.132812 187.042969 65.320312 187.777344 66.523438 188.484375 C 67.726562 189.191406 68.945312 189.871094 70.183594 190.519531 C 71.417969 191.171875 72.667969 191.789062 73.933594 192.382812 C 75.199219 192.972656 76.476562 193.535156 77.765625 194.066406 C 79.058594 194.597656 80.359375 195.097656 81.675781 195.566406 C 82.992188 196.035156 84.316406 196.476562 85.652344 196.882812 C 86.988281 197.289062 88.332031 197.664062 89.683594 198.011719 C 91.039062 198.355469 92.398438 198.667969 93.765625 198.945312 C 95.132812 199.226562 96.507812 199.476562 97.886719 199.691406 C 99.265625 199.90625 100.648438 200.089844 102.039062 200.238281 C 103.425781 200.390625 104.816406 200.507812 106.210938 200.59375 C 107.605469 200.679688 109 200.730469 110.394531 200.75 C 111.789062 200.769531 113.1875 200.757812 114.582031 200.710938 C 115.976562 200.664062 117.371094 200.585938 118.761719 200.472656 C 120.152344 200.363281 121.542969 200.21875 122.925781 200.042969 C 124.3125 199.863281 125.691406 199.65625 127.066406 199.414062 C 128.441406 199.171875 129.8125 198.898438 131.171875 198.589844 C 132.535156 198.285156 133.890625 197.945312 135.234375 197.578125 C 136.582031 197.207031 137.917969 196.804688 139.246094 196.371094 C 140.574219 195.941406 141.890625 195.476562 143.195312 194.980469 C 144.5 194.488281 145.796875 193.960938 147.074219 193.40625 C 148.355469 192.851562 149.625 192.265625 150.878906 191.648438 C 152.132812 191.035156 153.371094 190.390625 154.59375 189.71875 C 155.816406 189.042969 157.023438 188.34375 158.210938 187.613281 C 159.402344 186.882812 160.574219 186.125 161.730469 185.339844 C 162.882812 184.554688 164.019531 183.742188 165.136719 182.902344 C 166.25 182.066406 167.347656 181.199219 168.421875 180.308594 C 169.5 179.417969 170.550781 178.503906 171.585938 177.566406 C 172.617188 176.625 173.628906 175.660156 174.613281 174.675781 C 175.601562 173.6875 176.566406 172.675781 177.503906 171.644531 C 178.445312 170.613281 179.359375 169.558594 180.25 168.484375 C 181.140625 167.40625 182.003906 166.3125 182.84375 165.195312 C 183.683594 164.078125 184.492188 162.941406 185.277344 161.789062 C 186.0625 160.632812 186.820312 159.460938 187.550781 158.273438 C 188.28125 157.082031 188.984375 155.875 189.65625 154.652344 C 190.332031 153.429688 190.976562 152.191406 191.589844 150.9375 C 192.207031 149.683594 192.789062 148.417969 193.347656 147.136719 C 193.902344 145.855469 194.425781 144.5625 194.921875 143.257812 C 195.417969 141.949219 195.878906 140.632812 196.3125 139.308594 C 196.746094 137.980469 197.148438 136.640625 197.515625 135.296875 C 197.886719 133.949219 198.222656 132.59375 198.53125 131.234375 C 198.835938 129.871094 199.109375 128.503906 199.351562 127.128906 C 199.59375 125.753906 199.804688 124.371094 199.980469 122.988281 C 200.15625 121.601562 200.300781 120.214844 200.414062 118.824219 C 200.527344 117.429688 200.605469 116.035156 200.652344 114.640625 C 200.695312 113.246094 200.710938 111.851562 200.691406 110.453125 C 200.671875 109.058594 200.617188 107.664062 200.535156 106.269531 C 200.449219 104.875 200.332031 103.484375 200.179688 102.097656 C 200.027344 100.710938 199.847656 99.324219 199.628906 97.945312 C 199.414062 96.566406 199.167969 95.191406 198.886719 93.824219 C 198.605469 92.457031 198.292969 91.097656 197.949219 89.742188 C 197.605469 88.390625 197.230469 87.046875 196.820312 85.710938 C 196.414062 84.375 195.976562 83.050781 195.507812 81.734375 C 195.035156 80.421875 194.535156 79.117188 194.003906 77.828125 C 193.472656 76.535156 192.914062 75.257812 192.320312 73.992188 C 191.730469 72.726562 191.109375 71.476562 190.460938 70.242188 C 189.808594 69.007812 189.132812 67.785156 188.425781 66.582031 C 187.714844 65.378906 186.980469 64.191406 186.21875 63.023438 C 185.457031 61.855469 184.664062 60.703125 183.847656 59.570312 C 183.03125 58.441406 182.1875 57.328125 181.316406 56.234375 C 180.449219 55.144531 179.554688 54.070312 178.632812 53.019531 C 177.714844 51.972656 176.769531 50.941406 175.800781 49.9375 C 174.832031 48.929688 173.839844 47.949219 172.828125 46.988281 C 171.8125 46.03125 170.777344 45.09375 169.71875 44.183594 C 168.660156 43.273438 167.578125 42.390625 166.480469 41.53125 C 165.378906 40.671875 164.257812 39.835938 163.121094 39.03125 C 161.980469 38.222656 160.824219 37.441406 159.648438 36.691406 C 158.472656 35.9375 157.277344 35.214844 156.066406 34.515625 C 154.859375 33.820312 153.632812 33.152344 152.390625 32.511719 C 151.148438 31.875 149.894531 31.265625 148.625 30.683594 C 147.351562 30.105469 146.070312 29.554688 144.773438 29.035156 C 143.476562 28.515625 142.171875 28.027344 140.851562 27.570312 C 139.53125 27.113281 138.203125 26.6875 136.863281 26.289062 C 135.527344 25.894531 134.179688 25.53125 132.820312 25.199219 C 131.464844 24.867188 130.101562 24.566406 128.734375 24.300781 C 127.363281 24.03125 125.988281 23.796875 124.605469 23.59375 C 123.222656 23.390625 121.839844 23.21875 120.449219 23.082031 C 119.808594 23.015625 119.183594 22.890625 118.570312 22.707031 C 117.957031 22.519531 117.367188 22.273438 116.800781 21.972656 C 116.234375 21.667969 115.703125 21.3125 115.207031 20.90625 C 114.710938 20.496094 114.257812 20.046875 113.851562 19.550781 C 113.445312 19.050781 113.089844 18.519531 112.789062 17.953125 C 112.488281 17.386719 112.242188 16.796875 112.058594 16.183594 C 111.871094 15.570312 111.746094 14.941406 111.683594 14.304688 C 111.621094 13.664062 111.621094 13.027344 111.6875 12.386719 C 111.75 11.746094 111.875 11.121094 112.0625 10.507812 C 112.25 9.894531 112.492188 9.304688 112.796875 8.738281 C 113.101562 8.171875 113.457031 7.640625 113.863281 7.144531 C 114.269531 6.648438 114.722656 6.199219 115.21875 5.789062 C 115.714844 5.382812 116.246094 5.03125 116.816406 4.726562 C 117.382812 4.425781 117.972656 4.183594 118.585938 3.996094 C 119.199219 3.8125 119.828125 3.6875 120.464844 3.625 C 121.105469 3.5625 121.742188 3.5625 122.382812 3.628906 Z M 122.382812 3.628906 " fill-opacity="1" fill-rule="nonzero"/></g></svg>